<svg width="1401" height="789" viewBox="0 0 1401 789" fill="none" xmlns="http://www.w3.org/2000/svg">
<path d="M271.689 576.633C259.204 576.633 247.947 569.115 243.16 557.583L136.656 300.471C130.14 284.741 137.608 266.703 153.339 260.187L264.891 213.984C272.444 210.855 280.931 210.851 288.488 213.984C296.041 217.113 302.045 223.117 305.171 230.67L411.674 487.792C418.18 503.519 410.711 521.543 394.992 528.062L283.44 574.287C279.714 575.835 275.721 576.633 271.685 576.636L271.689 576.633ZM276.695 228.222C274.825 228.222 272.976 228.596 271.251 229.319L159.692 275.523C156.207 276.965 153.434 279.738 151.991 283.224C150.548 286.713 150.548 290.628 151.991 294.117L258.498 551.243C261.515 558.5 269.83 561.943 277.093 558.948L388.649 512.716C392.134 511.273 394.907 508.501 396.35 505.015C397.793 501.526 397.793 497.61 396.35 494.121L289.846 237.02C287.641 231.704 282.455 228.236 276.702 228.226L276.695 228.222Z" fill="#5A78FF"/>
<path style="mix-blend-mode:multiply" opacity="0.7" d="M312.205 247.623L296.867 253.977L339.037 355.782L354.374 349.429L312.205 247.623Z" fill="url(#paint0_linear_2111_19)"/>
<path style="mix-blend-mode:multiply" opacity="0.7" d="M356.861 355.451L341.523 361.804L389.258 477.045L404.596 470.691L356.861 355.451Z" fill="url(#paint1_linear_2111_19)"/>
<path d="M369.891 400.656C337.99 413.886 311.351 432.121 293.91 454.102L248.941 345.496C269.452 321.666 295.561 303.3 324.926 292.05C356.828 278.821 389.061 272.418 416.444 276.147L461.423 384.746C430.068 382.386 398.614 387.851 369.891 400.653V400.656Z" fill="#5A78FF"/>
<g style="mix-blend-mode:multiply" opacity="0.4">
<path opacity="0.9" d="M369.891 400.657C337.986 413.886 311.347 432.121 293.906 454.102L248.938 345.496C269.448 321.666 295.557 303.3 324.919 292.05C356.824 278.821 389.054 272.418 416.44 276.151L461.419 384.753C430.064 382.393 398.611 387.858 369.891 400.66V400.657Z" fill="url(#paint2_linear_2111_19)"/>
<path opacity="0.7" d="M369.891 400.657C337.986 413.886 311.347 432.121 293.906 454.102L248.938 345.496C269.448 321.666 295.557 303.3 324.919 292.05C356.824 278.821 389.054 272.418 416.44 276.151L461.419 384.753C430.064 382.393 398.611 387.858 369.891 400.66V400.657Z" fill="url(#paint3_linear_2111_19)"/>
</g>
<path d="M384.543 433.768C350.009 433.768 318.397 440.443 293.896 454.063V344.251C321.967 330.087 353.114 323.112 384.543 323.959C419.076 323.959 451.31 330.362 475.182 344.279V454.092C447.119 439.917 415.972 432.932 384.543 433.772V433.768ZM560.956 433.867L588.896 345.549C589.189 344.325 590.237 343.429 591.489 343.326H605.512C606.768 343.503 607.827 344.357 608.264 345.549L630.013 401.27C630.436 402.381 631.547 402.487 631.918 401.27L653.508 345.549C653.945 344.357 655.003 343.503 656.259 343.326H670.282C671.535 343.429 672.582 344.325 672.875 345.549L700.498 433.867C700.819 434.548 700.755 435.345 700.332 435.966C699.909 436.587 699.185 436.936 698.434 436.883H681.765C680.583 436.936 679.536 436.132 679.278 434.978L661.551 377.617C661.286 376.505 660.016 376.505 659.646 377.617L638.479 434.555C638.12 435.927 636.881 436.883 635.463 436.883H625.674C624.139 436.883 623.345 436.037 622.763 434.555L601.173 377.617C600.75 376.505 599.639 376.505 599.374 377.617L581.224 434.978C580.941 436.164 579.844 436.968 578.631 436.883H562.756C562.039 436.873 561.38 436.492 561.016 435.878C560.653 435.264 560.628 434.502 560.956 433.867ZM705.789 402.117C705.49 387.071 714.32 373.337 728.134 367.372C741.949 361.406 758.001 364.387 768.75 374.921C779.499 385.455 782.804 401.443 777.118 415.374C771.431 429.306 757.881 438.414 742.831 438.418C733.038 438.753 723.534 435.059 716.535 428.201C709.536 421.343 705.652 411.917 705.789 402.117ZM760.823 402.117C760.16 392.222 751.696 384.679 741.79 385.152C731.884 385.625 724.18 393.94 724.462 403.856C724.744 413.773 732.911 421.633 742.828 421.537C753.125 421.107 761.13 412.418 760.713 402.117H760.819H760.823ZM812.469 431.168C811.094 430.057 809.877 430.48 809.877 432.385V434.184C809.877 435.574 808.779 436.721 807.389 436.777H794.478C793.07 436.724 791.938 435.592 791.885 434.184V345.867C791.938 344.459 793.07 343.326 794.478 343.274H808.077C809.467 343.33 810.564 344.477 810.564 345.867V371.055C810.564 372.854 811.782 373.383 813.739 372.007C818.946 368.106 825.275 365.989 831.784 365.975C850.622 365.975 865.069 381.85 865.069 402.276C865.499 411.61 862.148 420.722 855.773 427.552C849.398 434.382 840.54 438.358 831.202 438.577C824.259 438.502 817.585 435.864 812.469 431.168ZM846.336 402.276C846.858 395.46 843.517 388.927 837.686 385.36C831.855 381.793 824.517 381.793 818.685 385.36C812.854 388.927 809.513 395.46 810.035 402.276C809.848 407.215 811.658 412.019 815.052 415.611C818.446 419.202 823.141 421.28 828.08 421.379C833.061 421.269 837.795 419.17 841.224 415.554C844.653 411.938 846.495 407.098 846.336 402.117V402.276ZM876.446 349.729C876.446 343.884 881.184 339.146 887.029 339.146C892.875 339.146 897.612 343.884 897.612 349.729C897.612 355.575 892.875 360.313 887.029 360.313C881.184 360.313 876.446 355.575 876.446 349.729ZM877.398 434.396V370.367C877.398 368.977 878.495 367.83 879.885 367.774H893.485C894.201 367.746 894.9 368.003 895.425 368.49C895.951 368.977 896.261 369.651 896.29 370.367V434.184C896.237 435.592 895.104 436.724 893.697 436.777H879.885C878.495 436.721 877.398 435.574 877.398 434.184V434.396ZM911.424 413.441V345.867C911.424 344.477 912.521 343.33 913.911 343.274H927.51C928.918 343.326 930.05 344.459 930.103 345.867V413.864C930.103 418.257 932.008 421.167 936.824 421.167C937.512 421.167 938.171 421.439 938.658 421.925C939.145 422.412 939.417 423.072 939.417 423.76V435.031C939.36 436.421 938.217 437.518 936.824 437.518C918.726 437.518 911.424 431.592 911.424 413.441ZM944.497 402.54C944.542 389.759 951.404 377.976 962.495 371.626C973.587 365.276 987.222 365.329 998.267 371.757C1009.31 378.188 1016.09 390.024 1016.04 402.801C1016.04 405.288 1015.35 407.352 1012.86 407.352H965.557C964.34 407.352 963.917 408.04 964.023 409.151C965.198 417.442 972.609 423.393 980.956 422.751C985.98 422.825 990.774 420.652 994.027 416.824C995.036 415.406 996.68 414.574 998.419 414.602H1011.07C1013.29 414.602 1014.24 416.136 1013.39 418.306C1005.98 433.429 989.116 441.452 972.701 437.663C956.286 433.874 944.645 419.276 944.602 402.431L944.497 402.537V402.54ZM994.715 396.19C995.667 396.19 996.09 395.767 995.932 394.656C994.489 387.06 987.786 381.61 980.057 381.744C972.497 381.737 965.924 386.93 964.182 394.285C963.917 395.238 964.182 396.19 965.293 396.19H994.715ZM1027.47 434.184V345.867C1027.47 344.477 1028.57 343.33 1029.96 343.274H1073.3C1093.09 343.274 1106.58 354.809 1106.58 374.23C1106.58 393.65 1091.29 405.609 1072.34 405.609H1049.38C1048.68 405.535 1047.99 405.789 1047.5 406.297C1047.01 406.805 1046.79 407.507 1046.89 408.202V434.184C1046.84 435.592 1045.71 436.724 1044.3 436.777H1030.01C1028.6 436.749 1027.47 435.596 1027.47 434.184ZM1072.34 389.629C1080.55 389.371 1087 382.538 1086.79 374.336C1086.91 370.452 1085.42 366.687 1082.68 363.936C1079.93 361.181 1076.17 359.681 1072.29 359.784H1049.17C1047.53 359.784 1046.84 360.63 1046.84 362.271V387.3C1046.84 388.941 1047.53 389.787 1049.17 389.787L1072.34 389.629ZM1113.25 402.117C1112.89 392.758 1116.3 383.649 1122.72 376.823C1129.13 370 1138.02 366.035 1147.38 365.816C1154.13 365.851 1160.65 368.356 1165.69 372.854C1166.91 373.965 1168.28 373.806 1168.28 372.166V370.367C1168.28 368.995 1169.4 367.88 1170.77 367.88H1183.68C1185.09 367.933 1186.22 369.065 1186.27 370.473V415.875C1186.27 419.315 1187.49 420.849 1189.87 421.167C1191.11 421.192 1192.12 422.158 1192.2 423.389V435.349C1192.2 436.636 1191.16 437.677 1189.87 437.677C1180.77 437.677 1175.43 435.084 1172.41 429.845C1171.56 428.469 1170.61 428.205 1169.23 429.581C1163.42 435.564 1155.4 438.894 1147.06 438.788C1137.68 438.517 1128.8 434.47 1122.43 427.57C1116.07 420.67 1112.76 411.494 1113.25 402.117ZM1168.28 402.117C1168.8 395.322 1165.47 388.807 1159.66 385.251C1153.84 381.695 1146.53 381.695 1140.71 385.251C1134.9 388.807 1131.57 395.322 1132.09 402.117C1131.57 408.911 1134.9 415.427 1140.71 418.983C1146.53 422.539 1153.84 422.539 1159.66 418.983C1165.47 415.427 1168.8 408.911 1168.28 402.117ZM1198.6 461.013V449.742C1198.66 448.352 1199.8 447.255 1201.2 447.255C1210.05 447.918 1218.21 442.461 1220.99 434.026C1221.45 432.255 1221.26 430.378 1220.46 428.734L1195.16 371.478C1194.73 370.699 1194.74 369.746 1195.2 368.981C1195.66 368.215 1196.49 367.753 1197.39 367.774H1210.99C1212.36 367.774 1213.21 368.885 1213.74 370.261L1229.61 406.879C1230.72 409.79 1232.52 409.631 1233.74 406.879L1248.87 370.155C1249.4 368.779 1250.09 367.933 1251.47 367.933H1264.54C1265.35 367.89 1266.13 368.268 1266.6 368.931C1267.08 369.598 1267.18 370.459 1266.87 371.214L1240.83 432.809C1231.36 455.245 1221.3 463.606 1201.2 463.606C1199.79 463.553 1198.66 462.421 1198.6 461.013Z" fill="#5A78FF"/>
<defs>
<linearGradient id="paint0_linear_2111_19" x1="338.544" y1="329.738" x2="331.67" y2="249.409" gradientUnits="userSpaceOnUse">
<stop stop-color="#504678"/>
<stop offset="0.3" stop-color="#504678" stop-opacity="0.62"/>
<stop offset="0.61" stop-color="#504678" stop-opacity="0.28"/>
<stop offset="0.85" stop-color="#504678" stop-opacity="0.08"/>
<stop offset="1" stop-color="#504678" stop-opacity="0"/>
</linearGradient>
<linearGradient id="paint1_linear_2111_19" x1="358.675" y1="385.905" x2="362.976" y2="475.919" gradientUnits="userSpaceOnUse">
<stop stop-color="#504678"/>
<stop offset="0.3" stop-color="#504678" stop-opacity="0.62"/>
<stop offset="0.61" stop-color="#504678" stop-opacity="0.28"/>
<stop offset="0.85" stop-color="#504678" stop-opacity="0.08"/>
<stop offset="1" stop-color="#504678" stop-opacity="0"/>
</linearGradient>
<linearGradient id="paint2_linear_2111_19" x1="275.814" y1="392.556" x2="360.058" y2="335.162" gradientUnits="userSpaceOnUse">
<stop stop-color="#504678"/>
<stop offset="0.18" stop-color="#504678" stop-opacity="0.87"/>
<stop offset="0.53" stop-color="#504678" stop-opacity="0.54"/>
<stop offset="1" stop-color="#504678" stop-opacity="0"/>
</linearGradient>
<linearGradient id="paint3_linear_2111_19" x1="348.192" y1="336.464" x2="344.448" y2="306.56" gradientUnits="userSpaceOnUse">
<stop stop-color="#504678"/>
<stop offset="0.64" stop-color="#504678" stop-opacity="0.33"/>
<stop offset="1" stop-color="#504678" stop-opacity="0"/>
</linearGradient>
</defs>
</svg>
