<?xml version="1.0" encoding="UTF-8"?>
<svg version="1.1" xmlns="http://www.w3.org/2000/svg" width="512" height="512">
<path d="M0 0 C4.50011369 1.7849613 7.89877779 5.26812937 11.48144531 8.4375 C54.45092004 45.51327638 112.90582019 68.68711526 169.66015625 68.95703125 C170.61857422 68.96186523 171.57699219 68.96669922 172.56445312 68.97167969 C179.12809017 68.95593416 185.57036884 68.49260513 192.09765625 67.83203125 C194.05329188 67.67021743 196.01186773 67.53450922 197.97265625 67.45703125 C199.26816406 67.38355469 199.26816406 67.38355469 200.58984375 67.30859375 C204.39804383 68.10345171 205.79628054 69.74997685 208.09765625 72.83203125 C208.57850821 75.65387303 208.71448441 77.77324933 208.59765625 80.58203125 C208.57920654 81.39220703 208.56075684 82.20238281 208.54174805 83.03710938 C206.01264469 159.67660512 187.61329628 238.71525771 87.55322266 399.46972656 C83.59601927 403.1733822 79.39317253 406.53257672 75.09765625 409.83203125 C74.5370752 410.26370605 73.97649414 410.69538086 73.39892578 411.14013672 C53.74132856 426.18372579 31.97772036 438.14334609 8.47265625 446.08203125 C7.62687012 446.36965332 6.78108398 446.65727539 5.90966797 446.95361328 C-3.15804247 449.84287971 -9.28508734 448.74332486 -17.90234375 445.08203125 C-19.32909424 444.48563843 -19.32909424 444.48563843 -20.78466797 443.87719727 C-36.15146292 437.30992231 -51.39679861 429.7387934 -64.90234375 419.83203125 C-65.8665625 419.13851563 -66.83078125 418.445 -67.82421875 417.73046875 C-82.91456824 406.66681873 -97.90650956 394.23717675 -109.90234375 379.83203125 C-111.20365234 378.3625 -111.20365234 378.3625 -112.53125 376.86328125 C-175.17251757 305.99291609 -200.47152413 207.28203106 -212.27734375 81.26953125 C-212.31472656 80.51607422 -212.35210937 79.76261719 -212.390625 78.98632812 C-212.45362315 75.00694504 -212.07640439 73.06935862 -209.69921875 69.828125 C-206.63903692 67.64411255 -205.46282884 67.24800374 -201.77734375 67.45703125 C-200.92914063 67.49054688 -200.0809375 67.5240625 -199.20703125 67.55859375 C-197.29566687 67.71674447 -195.38487987 67.88327252 -193.47631836 68.07226562 C-129.2337557 74.34150689 -65.30437826 48.92430058 -15.90234375 8.83203125 C-14.91234375 7.97480469 -13.92234375 7.11757813 -12.90234375 6.234375 C-5.00954629 -0.58760086 -5.00954629 -0.58760086 0 0 Z M-9.90234375 126.83203125 C-11.49214774 129.01973379 -12.99797468 131.19140518 -14.46484375 133.45703125 C-14.89120117 134.10744385 -15.31755859 134.75785645 -15.75683594 135.42797852 C-17.14688 137.55745576 -18.52552884 139.69398049 -19.90234375 141.83203125 C-20.36560059 142.54697754 -20.82885742 143.26192383 -21.30615234 143.99853516 C-62.74914279 204.05127057 -62.74914279 204.05127057 -72.04296875 273.4765625 C-69.36128661 284.51252564 -64.44998207 294.3453675 -56.90234375 302.83203125 C-56.23332031 303.71181641 -56.23332031 303.71181641 -55.55078125 304.609375 C-44.83799326 318.4232332 -28.10663603 325.19117279 -11.46484375 328.51953125 C10.13101312 330.41390466 29.4115119 324.29943308 46.22265625 310.64453125 C60.29700143 297.72382092 69.17010618 278.86277209 70.12109375 259.79296875 C69.86280422 227.16239135 47.63469681 192.71841176 31.09765625 165.83203125 C30.48535156 164.82849609 29.87304688 163.82496094 29.2421875 162.79101562 C22.65085424 152.0070508 15.88850233 141.3493225 8.78515625 130.89453125 C8.23980225 130.08910889 7.69444824 129.28368652 7.13256836 128.45385742 C6.37858765 127.35908081 6.37858765 127.35908081 5.609375 126.2421875 C5.17069092 125.60418213 4.73200684 124.96617676 4.2800293 124.30883789 C2.46336094 122.03978423 1.16578911 121.84111563 -1.71484375 121.45703125 C-6.02367639 121.96395274 -7.03650954 123.62853077 -9.90234375 126.83203125 Z " fill="#2A8CFF" transform="translate(257.90234375,31.16796875)"/>
<path d="M0 0 C0.66 0 1.32 0 2 0 C3.3059082 1.67041016 3.3059082 1.67041016 4.80078125 4.0390625 C5.63826904 5.35777344 5.63826904 5.35777344 6.49267578 6.703125 C7.09321777 7.66734375 7.69375977 8.6315625 8.3125 9.625 C9.24811768 11.11386719 9.24811768 11.11386719 10.20263672 12.6328125 C62.07174062 95.60242683 62.07174062 95.60242683 56.8203125 125.515625 C53.15582029 141.08099192 45.08538168 154.14399847 31.4375 162.6875 C16.63358191 170.81227087 -0.13194149 172.62004593 -16.5 168.4375 C-32.34421028 163.1003071 -43.11712645 153.7147834 -50.48925781 138.88500977 C-57.68769278 123.53563127 -56.74996245 108.2421545 -51.1484375 92.62597656 C-38.59536456 59.8060201 -19.42376876 29.13565315 0 0 Z M-36.3125 108.6875 C-38.5697664 111.78079099 -39.08922178 114.43997063 -38.87109375 118.25390625 C-36.68368581 129.90037553 -31.3661854 139.62790568 -22 147 C-14.92930586 151.535917 -7.10917733 154.49428302 1.375 153.875 C4.94893691 153.29846428 4.94893691 153.29846428 7 151.3125 C8.31791752 148.26481573 8.47974051 146.28964918 8 143 C5.00113619 139.15658744 2.46943834 138.37330398 -2.25 137.5625 C-8.91090402 136.15116496 -14.13733946 134.59147437 -18.48828125 129.1328125 C-21.87038206 123.68553509 -23.09876762 117.98411486 -24.2265625 111.72265625 C-24.771707 108.68361523 -24.771707 108.68361523 -28 107 C-31.63127267 106.53643328 -33.31967869 106.50354931 -36.3125 108.6875 Z " fill="#2A8BFF" transform="translate(255,174)"/>
</svg>
